Coordinates
version=1
nRows=24
nColumns=24
inDegrees=yes

Units are S.I. units (second, meters, Newtons, ...)
Angles are in degrees.

endheader
time	pelvis_tilt	pelvis_list	pelvis_rotation	pelvis_tx	pelvis_ty	pelvis_tz	hip_flexion_r	hip_adduction_r	hip_rotation_r	knee_angle_r	ankle_angle_r	subtalar_angle_r	mtp_angle_r	hip_flexion_l	hip_adduction_l	hip_rotation_l	knee_angle_l	ankle_angle_l	subtalar_angle_l	mtp_angle_l	lumbar_extension	lumbar_bending	lumbar_rotation
      4.12000000	    -12.37507484	     -0.19040380	     -5.98113950	      0.16324035	     -0.00572312	      0.01248001	      4.36783401	      5.11592815	      6.86639740	     -3.72875003	      0.52999006	      2.37929065	      9.81624065	     36.43051178	     -8.63852458	    -15.95158447	    -45.40343603	    -10.11208315	      7.28583704	     21.15312704	     11.26626143	      2.18723096	      7.24996699
      4.12500000	    -12.35419530	     -0.09243212	     -6.18639316	      0.16811928	     -0.00615063	      0.01290626	      4.09475136	      5.01282478	      7.07854879	     -3.81073522	      0.72680940	      2.42532905	      9.99269173	     36.57281123	     -8.48686827	    -16.20571552	    -44.16558465	     -9.91302096	      7.08612849	     20.62285408	     11.16065682	      2.09020915	      7.49478663
      4.13000000	    -12.33799608	      0.01237159	     -6.35049795	      0.17302730	     -0.00660966	      0.01333698	      3.82885275	      4.90405277	      7.21714696	     -3.89756196	      0.92865999	      2.43962053	     10.22294743	     36.70578358	     -8.30807616	    -16.44007373	    -42.89267616	     -9.71071695	      6.98895608	     20.07830972	     11.06436408	      1.96381698	      7.70718148
      4.13500000	    -12.41741138	      0.10200583	     -6.48303938	      0.17796897	     -0.00718199	      0.01370864	      3.66165403	      4.81532968	      7.34872867	     -3.98482957	      1.12811911	      2.45808870	     10.34771008	     36.93300020	     -8.13519478	    -16.65911473	    -41.57544569	     -9.61483903	      6.86590060	     19.73686905	     11.07506434	      1.85896848	      7.82876464
      4.14000000	    -12.38649872	      0.18558107	     -6.68496281	      0.18287497	     -0.00762376	      0.01413781	      3.37559668	      4.71942254	      7.49044805	     -4.05930664	      1.30346743	      2.57157780	     10.59245837	     36.99940250	     -7.99506296	    -16.97031174	    -40.23302963	     -9.46787084	      6.75938718	     19.19681471	     10.95921440	      1.76300835	      8.06040833
      4.14500000	    -12.46856031	      0.26395533	     -6.78743391	      0.18783255	     -0.00823067	      0.01450048	      3.21417772	      4.64191783	      7.56471694	     -4.15624144	      1.50456910	      2.59028477	     10.73211083	     37.19396768	     -7.81461316	    -17.18386932	    -38.85149584	     -9.41512283	      6.76483098	     18.87403495	     10.97254693	      1.64748191	      8.14916206
      4.15000000	    -12.46139601	      0.34490286	     -6.96949314	      0.19280624	     -0.00872089	      0.01486886	      2.95169887	      4.54269110	      7.65787130	     -4.23144950	      1.67906383	      2.74185739	     10.97912972	     37.24374268	     -7.66382741	    -17.53932702	    -37.43802869	     -9.32360699	      6.72797128	     18.39913158	     10.88694852	      1.55710804	      8.35402142
      4.15500000	    -12.53883368	      0.41478540	     -7.06046335	      0.19778482	     -0.00934376	      0.01518408	      2.78746552	      4.46784659	      7.69591768	     -4.33305464	      1.87631539	      2.79079279	     11.14485212	     37.39345361	     -7.47650434	    -17.77215332	    -35.99540938	     -9.32031395	      6.84691468	     18.09688549	     10.89101044	      1.45301356	      8.42546578
      4.16000000	    -12.53469359	      0.49618131	     -7.22368145	      0.20278537	     -0.00983008	      0.01551157	      2.53243520	      4.35916392	      7.73980348	     -4.41075723	      2.02885617	      2.99909753	     11.43024975	     37.40523577	     -7.30262917	    -18.11734016	    -34.50885294	     -9.31409352	      6.95767518	     17.70118147	     10.80779140	      1.35049500	      8.62827522
      4.16500000	    -12.64614147	      0.55118529	     -7.28393478	      0.20782945	     -0.01051597	      0.01577610	      2.40091819	      4.29941273	      7.74927207	     -4.51497766	      2.21442436	      3.04510985	     11.57440964	     37.55839212	     -7.10726050	    -18.35341356	    -33.01256391	     -9.37878908	      7.18180306	     17.49046971	     10.85329947	      1.25632353	      8.64826749
      4.17000000	    -12.68426446	      0.64706303	     -7.44052089	      0.21283116	     -0.01105010	      0.01612162	      2.21174562	      4.18099068	      7.78446059	     -4.62977300	      2.39088963	      3.26898750	     11.81755605	     37.58238298	     -6.92244001	    -18.74868042	    -31.46408008	     -9.52056669	      7.42525532	     17.25550637	     10.81806610	      1.13387362	      8.79556427
      4.17500000	    -12.72309497	      0.73478481	     -7.55192693	      0.21792397	     -0.01161410	      0.01636858	      2.01325117	      4.06085304	      7.75824700	     -4.73428862	      2.55735119	      3.50706312	     12.10444500	     37.58683904	     -6.70131004	    -19.08334719	    -29.87761015	     -9.65798726	      7.74958832	     17.14291603	     10.79043786	      1.01727856	      8.93680364
      4.18000000	    -12.82945931	      0.81571482	     -7.62736921	      0.22299776	     -0.01226621	      0.01660528	      1.89603036	      3.95962170	      7.74752158	     -4.86125934	      2.73333639	      3.67156517	     12.31613140	     37.66956387	     -6.47899535	    -19.42714235	    -28.29158941	     -9.88076826	      8.13369285	     17.08274696	     10.83466137	      0.89861805	      8.95990872
      4.18500000	    -12.89257197	      0.91380975	     -7.75434589	      0.22811423	     -0.01285323	      0.01686318	      1.74146701	      3.82625025	      7.71657866	     -4.99523350	      2.90612844	      3.97803714	     12.61437319	     37.65819766	     -6.25008776	    -19.78576768	    -26.64480584	    -10.12373810	      8.56803819	     17.18337603	     10.83620706	      0.77545210	      9.11765966
      4.19000000	    -12.98546572	      1.01164317	     -7.85159832	      0.23324441	     -0.01348055	      0.01709997	      1.62218755	      3.69428930	      7.67582913	     -5.13731697	      3.07441667	      4.26585815	     12.91708829	     37.67461473	     -6.00571843	    -20.14198782	    -24.98911351	    -10.43002221	      9.04562580	     17.35602478	     10.87205532	      0.64373310	      9.20133127
      4.19500000	    -13.09202963	      1.11184252	     -7.95287281	      0.23838994	     -0.01412004	      0.01732917	      1.52266688	      3.55761418	      7.63687158	     -5.28734610	      3.23362129	      4.57619377	     13.22528799	     37.69018093	     -5.75620368	    -20.49512419	    -23.31976182	    -10.76199690	      9.56538957	     17.59294999	     10.92295721	      0.51380471	      9.28711075
      4.20000000	    -13.20526477	      1.21666501	     -8.05835786	      0.24355742	     -0.01476376	      0.01756262	      1.43523720	      3.41311138	      7.59696325	     -5.44519404	      3.38680365	      4.91781757	     13.54917965	     37.69752816	     -5.49842182	    -20.83524439	    -21.63973788	    -11.11438321	     10.11665456	     17.88480489	     10.98452379	      0.37784207	      9.37572333
      4.20500000	    -13.32316592	      1.32456034	     -8.16929261	      0.24873369	     -0.01541091	      0.01778783	      1.35912565	      3.26190588	      7.55128701	     -5.61111571	      3.53161775	      5.28690951	     13.89600648	     37.69585449	     -5.23185294	    -21.14483902	    -19.95344673	    -11.47012871	     10.67752690	     18.21499956	     11.05097865	      0.24315516	      9.46803801
      4.21000000	    -13.45026046	      1.43693488	     -8.28243868	      0.25393714	     -0.01606368	      0.01801178	      1.29731633	      3.10378127	      7.50653320	     -5.78408446	      3.66624925	      5.67474509	     14.25567299	     37.69179771	     -4.95427430	    -21.40600976	    -18.27026112	    -11.81110965	     11.23527413	     18.53626856	     11.13078437	      0.10498956	      9.56090580
      4.21500000	    -13.58094092	      1.55178444	     -8.40189531	      0.25916345	     -0.01671478	      0.01823977	      1.24452132	      2.94060902	      7.45638970	     -5.96486034	      3.79110477	      6.08950448	     14.63363580	     37.67903272	     -4.67019204	    -21.60394049	    -16.59522852	    -12.12417601	     11.77065404	     18.82712059	     11.21642820	     -0.03495792	      9.66060210
      4.22000000	    -13.70697362	      1.66476958	     -8.50786040	      0.26441427	     -0.01735648	      0.01846625	      1.19074217	      2.77838355	      7.35408601	     -6.15229735	      3.89363498	      6.51303812	     15.06813817	     37.65128239	     -4.37234340	    -21.70991983	    -14.93007734	    -12.41782821	     12.25845164	     19.08792668	     11.29669350	     -0.18032167	      9.75809227
      4.22500000	    -13.85651431	      1.78898786	     -8.65625868	      0.26971567	     -0.01801643	      0.01869961	      1.16512045	      2.60216843	      7.35413645	     -6.34533231	      4.00114268	      6.95301940	     15.42345135	     37.63085682	     -4.08442863	    -21.74918310	    -13.29346356	    -12.61518151	     12.66698512	     19.17272054	     11.41288045	     -0.31652239	      9.86113581
      4.23000000	    -13.98753159	      1.91458675	     -8.78910512	      0.27505455	     -0.01865216	      0.01893956	      1.12583818	      2.42270245	      7.27645153	     -6.55161529	      4.09623347	      7.42579318	     15.80807233	     37.57937105	     -3.78410389	    -21.69781011	    -11.67680656	    -12.79009299	     13.00762107	     19.19892255	     11.51152376	     -0.46607489	      9.97112055
      4.23500000	    -14.11476175	      2.03934711	     -8.93057757	      0.28043414	     -0.01927987	      0.01918980	      1.08633772	      2.24335378	      7.19586506	     -6.76540032	      4.17313909	      7.90536098	     16.21032319	     37.51130271	     -3.49112677	    -21.55968339	    -10.09448557	    -12.92280067	     13.23638798	     19.12158074	     11.60862365	     -0.61367007	     10.08866659
